<?xml version="1.0" encoding="UTF-8"?>
<svg version="1.1" xmlns="http://www.w3.org/2000/svg" width="1024" height="1024">
<path d="M0 0 C337.92 0 675.84 0 1024 0 C1024 337.92 1024 675.84 1024 1024 C686.08 1024 348.16 1024 0 1024 C0 686.08 0 348.16 0 0 Z " fill="#000000" transform="translate(0,0)"/>
<path d="M0 0 C1.22275635 0.63953613 1.22275635 0.63953613 2.47021484 1.29199219 C22.17442393 11.6253715 40.89137691 23.91326024 59.56201172 35.97875977 C65.03954847 39.50796628 70.55115284 42.96190021 76.13671875 46.31640625 C76.72852936 46.67350677 77.32033997 47.0306073 77.93008423 47.39852905 C80.77848764 49.11719835 83.63198458 50.82379194 86.5 52.50976562 C95.21935058 57.75782758 100.44441241 62.74438777 104.5625 72.125 C104.88782715 72.84034912 105.2131543 73.55569824 105.54833984 74.29272461 C106.29015498 75.92981641 107.02610995 77.56957166 107.75732422 79.21142578 C109.12966165 82.29096177 110.51937625 85.36234423 111.91015625 88.43359375 C118.00256647 101.92305533 123.96896308 115.4658288 129.8866272 129.03268433 C133.98141995 138.4182437 138.11730622 147.7837366 142.3125 157.125 C143.1010437 158.88130737 143.1010437 158.88130737 143.90551758 160.6730957 C146.24459097 165.87876629 148.58625554 171.08325474 150.93261719 176.28564453 C171.54810074 222.00522445 191.16463805 268.12308532 209.37451172 314.85546875 C210.41136545 317.51342958 211.46947505 320.1608105 212.55126953 322.80078125 C213.01001465 323.93902344 213.46875977 325.07726562 213.94140625 326.25 C214.34174072 327.22453125 214.7420752 328.1990625 215.15454102 329.203125 C216.3199704 333.05849866 216.70672315 336.31873662 215.12060547 340.09204102 C214.70697754 340.72295654 214.29334961 341.35387207 213.8671875 342.00390625 C213.39796875 342.73367676 212.92875 343.46344727 212.4453125 344.21533203 C211.92710937 344.98989746 211.40890625 345.76446289 210.875 346.5625 C210.33875 347.3860498 209.8025 348.20959961 209.25 349.05810547 C207.5138668 351.7148093 205.75777545 354.35757677 204 357 C202.83532073 358.77173013 201.67125668 360.54386483 200.5078125 362.31640625 C183.64703451 387.89933105 165.66721409 412.71609143 146.171875 436.359375 C144.71371323 438.13224795 143.26589273 439.91367308 141.828125 441.703125 C137.26072262 447.37188682 132.52070907 452.81018084 127.54150391 458.11694336 C124.96902569 460.83906469 124.96902569 460.83906469 123 464 C122.34 464 121.68 464 121 464 C120.73050537 464.59474121 120.46101074 465.18948242 120.18334961 465.80224609 C119.00333033 467.99381481 117.82482198 469.41967449 116.06640625 471.1640625 C115.49986328 471.72867187 114.93332031 472.29328125 114.34960938 472.875 C113.75986328 473.4525 113.17011719 474.03 112.5625 474.625 C111.97662109 475.21023438 111.39074219 475.79546875 110.78710938 476.3984375 C108.26007718 478.89965438 105.97575385 481.0161641 103 483 C102.01 482.67 101.02 482.34 100 482 C100.63808594 481.13117188 101.27617188 480.26234375 101.93359375 479.3671875 C102.76879756 478.20353275 103.6034014 477.03944721 104.4375 475.875 C104.85837891 475.30523438 105.27925781 474.73546875 105.71289062 474.1484375 C108.33520006 470.45622581 109.61299651 467.62996902 110 463 C105.7258895 465.29361608 102.48352162 468.24301399 99.125 471.6875 C98.59108643 472.22785889 98.05717285 472.76821777 97.50708008 473.32495117 C94.8051958 476.07945087 92.18393609 478.86865069 89.6875 481.8125 C85.56213361 486.67490456 80.96502923 491.08405248 76.41674805 495.54614258 C73.50739534 498.41647882 70.71999444 501.26836317 68.1640625 504.4609375 C67.44992187 505.29882812 66.73578125 506.13671875 66 507 C65.34 507 64.68 507 64 507 C63.74605469 507.58265625 63.49210937 508.1653125 63.23046875 508.765625 C61.86679667 511.24188033 60.35774797 512.80520626 58.3125 514.75 C55.05044021 517.9303624 52.02234732 521.20700369 49.0546875 524.66015625 C45.89357629 528.25997681 42.62107024 531.75616794 39.35058594 535.2565918 C36.88755034 537.90488205 34.51864037 540.57447301 32.2578125 543.3984375 C31.51273438 544.25695312 30.76765625 545.11546875 30 546 C29.34 546 28.68 546 28 546 C27.75256546 546.57242432 27.50513092 547.14484863 27.25019836 547.73461914 C25.8011632 550.36029569 24.11971042 552.12737291 21.99682617 554.24609375 C21.17224411 555.07375244 20.34766205 555.90141113 19.49809265 556.75415039 C18.60540176 557.63965576 17.71271088 558.52516113 16.79296875 559.4375 C15.87542313 560.3545874 14.9578775 561.2716748 14.01252747 562.21655273 C12.07124401 564.15627409 10.1266547 566.09259701 8.17944336 568.02636719 C5.69294603 570.4959109 3.21304576 572.9719497 0.73539257 575.45036316 C-1.63846027 577.82387733 -4.01655188 580.19311985 -6.39453125 582.5625 C-7.28114944 583.44800537 -8.16776764 584.33351074 -9.08125305 585.24584961 C-9.9152916 586.0735083 -10.74933014 586.90116699 -11.60864258 587.75390625 C-12.3376326 588.47908447 -13.06662262 589.2042627 -13.81770325 589.95141602 C-20.00092451 595.75578155 -20.00092451 595.75578155 -23.8125 596.6875 C-28.7762247 595.61689271 -31.41963725 592.4666054 -35 589 C-36.48155777 587.63624803 -37.96337561 586.27276169 -39.45068359 584.9152832 C-40.93044032 583.56354199 -42.40290833 582.20383469 -43.875 580.84375 C-46.14166269 578.76380469 -48.44556707 576.73272614 -50.76782227 574.71508789 C-65.84379959 561.53367434 -79.90038849 547.25775677 -94.03930664 533.09106445 C-96.99414216 530.13047922 -99.95352042 527.1744816 -102.91420078 524.21974277 C-105.22644259 521.91113159 -107.53627677 519.60012326 -109.8454113 517.28840446 C-110.93577978 516.1973764 -112.02687066 515.10706974 -113.1187458 514.01754951 C-118.46187011 508.68344595 -123.7425924 503.33647216 -128.63792419 497.58226013 C-130.48274612 495.43921628 -132.47128595 493.46815542 -134.5 491.5 C-137.84933729 488.19013302 -140.99925956 484.79253051 -144.0625 481.21875 C-145.98610362 479.0159136 -147.96120327 476.86669085 -149.95043945 474.72314453 C-154.80651286 469.48840558 -159.42206712 464.13028224 -163.8984375 458.5625 C-165.80426021 456.23867156 -167.77778641 454.02305304 -169.8125 451.8125 C-192.91394652 425.94251077 -210.63619581 394.40480622 -227 364 C-227.51788086 363.04722168 -228.03576172 362.09444336 -228.56933594 361.11279297 C-230.24650536 358.01937978 -231.9066253 354.91735698 -233.5625 351.8125 C-234.08803467 350.8436084 -234.61356934 349.8747168 -235.1550293 348.87646484 C-238.57856095 342.38553504 -240.8204976 337.54597659 -239.1015625 330.1171875 C-238.62763017 328.69690252 -238.13426114 327.28300369 -237.625 325.875 C-237.22051636 324.71363525 -237.22051636 324.71363525 -236.80786133 323.52880859 C-233.66607492 314.72198036 -229.95179261 306.15786565 -226.15576172 297.6171875 C-225.04278905 295.0968945 -223.95780425 292.56628307 -222.87890625 290.03125 C-217.56652945 277.69947228 -211.20785225 266.11739693 -204.45703125 254.51904297 C-203.21951928 252.37952412 -202.00631262 250.23047751 -200.8125 248.06640625 C-188.86113592 226.52905223 -174.16110184 206.16867894 -157.68676758 187.87573242 C-156.46817133 186.52061953 -155.25811643 185.15780908 -154.0534668 183.7902832 C-148.28251027 177.2805501 -142.24019993 171.08588889 -136.0793457 164.94897461 C-134.43258596 163.30760204 -132.79127905 161.66091181 -131.15039062 160.01367188 C-125.60576341 154.46554693 -119.98551024 149.07540085 -114 144 C-112.56058164 142.71047148 -111.12267674 141.41924756 -109.6875 140.125 C-90.93163238 123.45311767 -70.49777137 108.45456074 -48.9375 95.625 C-47.99140869 95.05934326 -47.04531738 94.49368652 -46.07055664 93.91088867 C-45.19004639 93.39631104 -44.30953613 92.8817334 -43.40234375 92.3515625 C-42.62366943 91.89604004 -41.84499512 91.44051758 -41.04272461 90.97119141 C-39 90 -39 90 -36 90 C-36 61.29 -36 32.58 -36 3 C-50.41400934 8.87583021 -50.41400934 8.87583021 -64 16 C-64.95293945 16.54906006 -65.90587891 17.09812012 -66.88769531 17.66381836 C-69.93418347 19.42756162 -72.96869411 21.21030087 -76 23 C-77.04349609 23.61504395 -78.08699219 24.23008789 -79.16210938 24.86376953 C-95.92729479 34.77489243 -112.61494201 44.87450199 -128.74609375 55.796875 C-131.43523342 57.61761302 -134.13781686 59.41353979 -136.84765625 61.203125 C-138.58626198 62.36409756 -140.32454227 63.52555762 -142.0625 64.6875 C-142.89716797 65.23462646 -143.73183594 65.78175293 -144.59179688 66.34545898 C-145.37748047 66.87469971 -146.16316406 67.40394043 -146.97265625 67.94921875 C-147.67656494 68.41674561 -148.38047363 68.88427246 -149.10571289 69.3659668 C-152.64270984 72.41701984 -154.33355054 76.53457788 -156.13671875 80.76171875 C-156.54067871 81.69798096 -156.94463867 82.63424316 -157.36083984 83.59887695 C-157.7986377 84.61812256 -158.23643555 85.63736816 -158.6875 86.6875 C-163.23556864 97.15116767 -167.99653967 107.49928785 -172.875 117.8125 C-173.21685333 118.53541229 -173.55870667 119.25832458 -173.91091919 120.00314331 C-175.28744482 122.91358228 -176.66417539 125.82392394 -178.04161072 128.7339325 C-181.8096748 136.7001198 -185.51703539 144.69410777 -189.2175293 152.69189453 C-191.88722056 158.45895202 -194.57029954 164.21889075 -197.28515625 169.96484375 C-206.13533245 188.72808811 -214.53934801 207.67221903 -222.81588745 226.6950531 C-225.00641514 231.72869321 -227.21381538 236.75437145 -229.4375 241.7734375 C-241.04098148 268.06763085 -251.66022936 294.83189412 -261.5625 321.8125 C-261.92633789 322.78872314 -262.29017578 323.76494629 -262.66503906 324.77075195 C-264.90453152 331.01217432 -266.24774131 335.25436635 -263.3828125 341.55859375 C-262.64502689 342.86007507 -261.89148049 344.15270862 -261.125 345.4375 C-260.72079834 346.13488281 -260.31659668 346.83226562 -259.90014648 347.55078125 C-256.34597238 353.6011364 -252.47568243 359.42242183 -248.53125 365.22265625 C-245.93244559 369.06189 -243.49318097 372.99046171 -241.0625 376.9375 C-235.97829009 385.15083617 -230.53872893 393.08829705 -225 401 C-224.47422363 401.7523291 -223.94844727 402.5046582 -223.40673828 403.27978516 C-220.51901016 407.41132645 -217.62754104 411.54023408 -214.734375 415.66796875 C-205.27498639 429.16886862 -195.85943415 442.69909215 -186.5625 456.3125 C-185.59485718 457.72764893 -185.59485718 457.72764893 -184.60766602 459.17138672 C-184.01655029 460.03908691 -183.42543457 460.90678711 -182.81640625 461.80078125 C-182.29506104 462.56559814 -181.77371582 463.33041504 -181.23657227 464.1184082 C-180 466 -180 466 -179 468 C-182.12324544 466.61370756 -184.24190707 465.00488429 -186.64453125 462.5859375 C-187.66063477 461.56693359 -187.66063477 461.56693359 -188.69726562 460.52734375 C-189.74430664 459.46193359 -189.74430664 459.46193359 -190.8125 458.375 C-191.49892578 457.68792969 -192.18535156 457.00085938 -192.89257812 456.29296875 C-196.90231614 452.24908916 -200.73624137 448.09708196 -204.45678711 443.78613281 C-206.38936517 441.54934416 -208.38056453 439.3691526 -210.375 437.1875 C-214.19914478 432.9455915 -217.84889455 428.59448903 -221.4375 424.15234375 C-223.33020913 421.81140119 -225.25250175 419.49750788 -227.1875 417.19140625 C-243.59242064 397.58734009 -258.01607143 376.68127027 -272 355.3125 C-272.37557037 354.73861542 -272.75114075 354.16473083 -273.13809204 353.57345581 C-277.74700324 346.52381182 -277.74700324 346.52381182 -280 343 C-280.59039062 342.22422607 -281.18078125 341.44845215 -281.7890625 340.64916992 C-284.06537311 335.66928153 -282.36957689 330.76145517 -280.62402344 325.8359375 C-280.04532921 324.34522684 -279.45659524 322.85838574 -278.859375 321.375 C-278.38190575 320.1574855 -278.38190575 320.1574855 -277.89479065 318.91537476 C-276.85570684 316.27318639 -275.80323253 313.63657673 -274.75 311 C-274.01916642 309.15209619 -273.28894865 307.30394874 -272.55932617 305.45556641 C-270.38745174 299.96452058 -268.19634179 294.48129725 -266 289 C-265.53608856 287.84050842 -265.53608856 287.84050842 -265.06280518 286.65759277 C-261.09726109 276.74880569 -257.07160247 266.86564892 -253 257 C-252.73507751 256.3571405 -252.47015503 255.71428101 -252.19720459 255.05194092 C-244.64664611 236.73521456 -236.77913264 218.59172031 -228.60302734 200.54443359 C-225.98971269 194.76616643 -223.40280019 188.97611036 -220.8125 183.1875 C-215.16547146 170.58426419 -209.49808911 157.99020906 -203.828125 145.39727783 C-199.50052033 135.78568053 -195.17687843 126.1724011 -190.8737793 116.54980469 C-189.32933959 113.10011324 -187.77808103 109.65354361 -186.2265625 106.20703125 C-184.17245919 101.63815705 -182.14633177 97.0584982 -180.14161682 92.46775818 C-178.82344386 89.45689472 -177.49162862 86.45216994 -176.1578064 83.44821167 C-175.52205771 82.00793446 -174.89213101 80.56507005 -174.26870728 79.11941528 C-169.21741073 67.41624247 -163.51935942 58.49584751 -152.375 51.8125 C-150.87228447 50.87648084 -149.36968613 49.94027354 -147.8671875 49.00390625 C-147.07666992 48.51809082 -146.28615234 48.03227539 -145.47167969 47.53173828 C-142.9239926 45.95289703 -140.40141507 44.33964145 -137.8828125 42.71484375 C-124.10572502 33.8340282 -110.12079772 25.32230176 -96 17 C-95.10458496 16.47164551 -94.20916992 15.94329102 -93.28662109 15.39892578 C-83.17927532 9.46117009 -72.92587712 3.81348302 -62.54168701 -1.62423706 C-60.80037953 -2.53611747 -59.06152781 -3.45268255 -57.32275391 -4.36938477 C-34.56462325 -16.15890378 -21.94924752 -11.69903926 0 0 Z " fill="#010101" transform="translate(546,159)"/>
<path d="M0 0 C1.22275635 0.63953613 1.22275635 0.63953613 2.47021484 1.29199219 C22.17442393 11.6253715 40.89137691 23.91326024 59.56201172 35.97875977 C65.03954847 39.50796628 70.55115284 42.96190021 76.13671875 46.31640625 C76.72852936 46.67350677 77.32033997 47.0306073 77.93008423 47.39852905 C80.77848764 49.11719835 83.63198458 50.82379194 86.5 52.50976562 C95.21935058 57.75782758 100.44441241 62.74438777 104.5625 72.125 C104.88782715 72.84034912 105.2131543 73.55569824 105.54833984 74.29272461 C106.29015498 75.92981641 107.02610995 77.56957166 107.75732422 79.21142578 C109.12966165 82.29096177 110.51937625 85.36234423 111.91015625 88.43359375 C118.00256647 101.92305533 123.96896308 115.4658288 129.8866272 129.03268433 C133.98141995 138.4182437 138.11730622 147.7837366 142.3125 157.125 C143.1010437 158.88130737 143.1010437 158.88130737 143.90551758 160.6730957 C146.24459097 165.87876629 148.58625554 171.08325474 150.93261719 176.28564453 C171.54810074 222.00522445 191.16463805 268.12308532 209.37451172 314.85546875 C210.41136545 317.51342958 211.46947505 320.1608105 212.55126953 322.80078125 C213.01001465 323.93902344 213.46875977 325.07726562 213.94140625 326.25 C214.34174072 327.22453125 214.7420752 328.1990625 215.15454102 329.203125 C216.3199704 333.05849866 216.70672315 336.31873662 215.12060547 340.09204102 C214.70697754 340.72295654 214.29334961 341.35387207 213.8671875 342.00390625 C213.39796875 342.73367676 212.92875 343.46344727 212.4453125 344.21533203 C211.92710937 344.98989746 211.40890625 345.76446289 210.875 346.5625 C210.33875 347.3860498 209.8025 348.20959961 209.25 349.05810547 C207.5138668 351.7148093 205.75777545 354.35757677 204 357 C202.83532073 358.77173013 201.67125668 360.54386483 200.5078125 362.31640625 C183.64703451 387.89933105 165.66721409 412.71609143 146.171875 436.359375 C144.71371323 438.13224795 143.26589273 439.91367308 141.828125 441.703125 C137.26072262 447.37188682 132.52070907 452.81018084 127.54150391 458.11694336 C124.96902569 460.83906469 124.96902569 460.83906469 123 464 C122.34 464 121.68 464 121 464 C120.73050537 464.59474121 120.46101074 465.18948242 120.18334961 465.80224609 C119.00333033 467.99381481 117.82482198 469.41967449 116.06640625 471.1640625 C115.49986328 471.72867187 114.93332031 472.29328125 114.34960938 472.875 C113.75986328 473.4525 113.17011719 474.03 112.5625 474.625 C111.97662109 475.21023438 111.39074219 475.79546875 110.78710938 476.3984375 C108.26007718 478.89965438 105.97575385 481.0161641 103 483 C102.01 482.67 101.02 482.34 100 482 C100.63808594 481.13117188 101.27617188 480.26234375 101.93359375 479.3671875 C102.76879756 478.20353275 103.6034014 477.03944721 104.4375 475.875 C104.85837891 475.30523438 105.27925781 474.73546875 105.71289062 474.1484375 C108.33520006 470.45622581 109.61299651 467.62996902 110 463 C105.7258895 465.29361608 102.48352162 468.24301399 99.125 471.6875 C98.59108643 472.22785889 98.05717285 472.76821777 97.50708008 473.32495117 C94.8051958 476.07945087 92.18393609 478.86865069 89.6875 481.8125 C85.56213361 486.67490456 80.96502923 491.08405248 76.41674805 495.54614258 C73.50739534 498.41647882 70.71999444 501.26836317 68.1640625 504.4609375 C67.44992187 505.29882812 66.73578125 506.13671875 66 507 C65.34 507 64.68 507 64 507 C63.74605469 507.58265625 63.49210937 508.1653125 63.23046875 508.765625 C61.86679667 511.24188033 60.35774797 512.80520626 58.3125 514.75 C55.05044021 517.9303624 52.02234732 521.20700369 49.0546875 524.66015625 C45.89357629 528.25997681 42.62107024 531.75616794 39.35058594 535.2565918 C36.88755034 537.90488205 34.51864037 540.57447301 32.2578125 543.3984375 C31.51273438 544.25695312 30.76765625 545.11546875 30 546 C29.34 546 28.68 546 28 546 C27.75256546 546.57242432 27.50513092 547.14484863 27.25019836 547.73461914 C25.8011632 550.36029569 24.11971042 552.12737291 21.99682617 554.24609375 C21.17224411 555.07375244 20.34766205 555.90141113 19.49809265 556.75415039 C18.60540176 557.63965576 17.71271088 558.52516113 16.79296875 559.4375 C15.87542313 560.3545874 14.9578775 561.2716748 14.01252747 562.21655273 C12.07124401 564.15627409 10.1266547 566.09259701 8.17944336 568.02636719 C5.69294603 570.4959109 3.21304576 572.9719497 0.73539257 575.45036316 C-1.63846027 577.82387733 -4.01655188 580.19311985 -6.39453125 582.5625 C-7.28114944 583.44800537 -8.16776764 584.33351074 -9.08125305 585.24584961 C-9.9152916 586.0735083 -10.74933014 586.90116699 -11.60864258 587.75390625 C-12.3376326 588.47908447 -13.06662262 589.2042627 -13.81770325 589.95141602 C-20.00092451 595.75578155 -20.00092451 595.75578155 -23.8125 596.6875 C-28.7762247 595.61689271 -31.41963725 592.4666054 -35 589 C-36.48155777 587.63624803 -37.96337561 586.27276169 -39.45068359 584.9152832 C-40.93044032 583.56354199 -42.40290833 582.20383469 -43.875 580.84375 C-46.14166269 578.76380469 -48.44556707 576.73272614 -50.76782227 574.71508789 C-65.84379959 561.53367434 -79.90038849 547.25775677 -94.03930664 533.09106445 C-96.99414216 530.13047922 -99.95352042 527.1744816 -102.91420078 524.21974277 C-105.22644259 521.91113159 -107.53627677 519.60012326 -109.8454113 517.28840446 C-110.93577978 516.1973764 -112.02687066 515.10706974 -113.1187458 514.01754951 C-118.46187011 508.68344595 -123.7425924 503.33647216 -128.63792419 497.58226013 C-130.48274612 495.43921628 -132.47128595 493.46815542 -134.5 491.5 C-137.84933729 488.19013302 -140.99925956 484.79253051 -144.0625 481.21875 C-145.98610362 479.0159136 -147.96120327 476.86669085 -149.95043945 474.72314453 C-154.80651286 469.48840558 -159.42206712 464.13028224 -163.8984375 458.5625 C-165.80426021 456.23867156 -167.77778641 454.02305304 -169.8125 451.8125 C-192.91394652 425.94251077 -210.63619581 394.40480622 -227 364 C-227.51788086 363.04722168 -228.03576172 362.09444336 -228.56933594 361.11279297 C-230.24650536 358.01937978 -231.9066253 354.91735698 -233.5625 351.8125 C-234.08803467 350.8436084 -234.61356934 349.8747168 -235.1550293 348.87646484 C-238.57856095 342.38553504 -240.8204976 337.54597659 -239.1015625 330.1171875 C-238.62763017 328.69690252 -238.13426114 327.28300369 -237.625 325.875 C-237.22051636 324.71363525 -237.22051636 324.71363525 -236.80786133 323.52880859 C-233.66607492 314.72198036 -229.95179261 306.15786565 -226.15576172 297.6171875 C-225.04278905 295.0968945 -223.95780425 292.56628307 -222.87890625 290.03125 C-217.56652945 277.69947228 -211.20785225 266.11739693 -204.45703125 254.51904297 C-203.21951928 252.37952412 -202.00631262 250.23047751 -200.8125 248.06640625 C-188.86113592 226.52905223 -174.16110184 206.16867894 -157.68676758 187.87573242 C-156.46817133 186.52061953 -155.25811643 185.15780908 -154.0534668 183.7902832 C-148.28251027 177.2805501 -142.24019993 171.08588889 -136.0793457 164.94897461 C-134.43258596 163.30760204 -132.79127905 161.66091181 -131.15039062 160.01367188 C-125.60576341 154.46554693 -119.98551024 149.07540085 -114 144 C-112.56058164 142.71047148 -111.12267674 141.41924756 -109.6875 140.125 C-90.93163238 123.45311767 -70.49777137 108.45456074 -48.9375 95.625 C-47.99140869 95.05934326 -47.04531738 94.49368652 -46.07055664 93.91088867 C-45.19004639 93.39631104 -44.30953613 92.8817334 -43.40234375 92.3515625 C-42.62366943 91.89604004 -41.84499512 91.44051758 -41.04272461 90.97119141 C-39 90 -39 90 -36 90 C-36 61.29 -36 32.58 -36 3 C-50.41400934 8.87583021 -50.41400934 8.87583021 -64 16 C-64.95293945 16.54906006 -65.90587891 17.09812012 -66.88769531 17.66381836 C-69.93418347 19.42756162 -72.96869411 21.21030087 -76 23 C-77.04349609 23.61504395 -78.08699219 24.23008789 -79.16210938 24.86376953 C-95.92729479 34.77489243 -112.61494201 44.87450199 -128.74609375 55.796875 C-131.43523342 57.61761302 -134.13781686 59.41353979 -136.84765625 61.203125 C-138.58626198 62.36409756 -140.32454227 63.52555762 -142.0625 64.6875 C-142.89716797 65.23462646 -143.73183594 65.78175293 -144.59179688 66.34545898 C-145.37748047 66.87469971 -146.16316406 67.40394043 -146.97265625 67.94921875 C-147.67656494 68.41674561 -148.38047363 68.88427246 -149.10571289 69.3659668 C-152.64270984 72.41701984 -154.33355054 76.53457788 -156.13671875 80.76171875 C-156.54067871 81.69798096 -156.94463867 82.63424316 -157.36083984 83.59887695 C-157.7986377 84.61812256 -158.23643555 85.63736816 -158.6875 86.6875 C-163.23556864 97.15116767 -167.99653967 107.49928785 -172.875 117.8125 C-173.21685333 118.53541229 -173.55870667 119.25832458 -173.91091919 120.00314331 C-175.28744482 122.91358228 -176.66417539 125.82392394 -178.04161072 128.7339325 C-181.8096748 136.7001198 -185.51703539 144.69410777 -189.2175293 152.69189453 C-191.88722056 158.45895202 -194.57029954 164.21889075 -197.28515625 169.96484375 C-206.13533245 188.72808811 -214.53934801 207.67221903 -222.81588745 226.6950531 C-225.00641514 231.72869321 -227.21381538 236.75437145 -229.4375 241.7734375 C-241.04098148 268.06763085 -251.66022936 294.83189412 -261.5625 321.8125 C-261.92633789 322.78872314 -262.29017578 323.76494629 -262.66503906 324.77075195 C-264.90453152 331.01217432 -266.24774131 335.25436635 -263.3828125 341.55859375 C-262.64502689 342.86007507 -261.89148049 344.15270862 -261.125 345.4375 C-260.72079834 346.13488281 -260.31659668 346.83226562 -259.90014648 347.55078125 C-256.34597238 353.6011364 -252.47568243 359.42242183 -248.53125 365.22265625 C-245.93244559 369.06189 -243.49318097 372.99046171 -241.0625 376.9375 C-235.97829009 385.15083617 -230.53872893 393.08829705 -225 401 C-224.47422363 401.7523291 -223.94844727 402.5046582 -223.40673828 403.27978516 C-220.51901016 407.41132645 -217.62754104 411.54023408 -214.734375 415.66796875 C-205.27498639 429.16886862 -195.85943415 442.69909215 -186.5625 456.3125 C-185.59485718 457.72764893 -185.59485718 457.72764893 -184.60766602 459.17138672 C-184.01655029 460.03908691 -183.42543457 460.90678711 -182.81640625 461.80078125 C-182.29506104 462.56559814 -181.77371582 463.33041504 -181.23657227 464.1184082 C-180 466 -180 466 -179 468 C-182.12324544 466.61370756 -184.24190707 465.00488429 -186.64453125 462.5859375 C-187.66063477 461.56693359 -187.66063477 461.56693359 -188.69726562 460.52734375 C-189.74430664 459.46193359 -189.74430664 459.46193359 -190.8125 458.375 C-191.49892578 457.68792969 -192.18535156 457.00085938 -192.89257812 456.29296875 C-196.90231614 452.24908916 -200.73624137 448.09708196 -204.45678711 443.78613281 C-206.38936517 441.54934416 -208.38056453 439.3691526 -210.375 437.1875 C-214.19914478 432.9455915 -217.84889455 428.59448903 -221.4375 424.15234375 C-223.33020913 421.81140119 -225.25250175 419.49750788 -227.1875 417.19140625 C-243.59242064 397.58734009 -258.01607143 376.68127027 -272 355.3125 C-272.37557037 354.73861542 -272.75114075 354.16473083 -273.13809204 353.57345581 C-277.74700324 346.52381182 -277.74700324 346.52381182 -280 343 C-280.59039062 342.22422607 -281.18078125 341.44845215 -281.7890625 340.64916992 C-284.06537311 335.66928153 -282.36957689 330.76145517 -280.62402344 325.8359375 C-280.04532921 324.34522684 -279.45659524 322.85838574 -278.859375 321.375 C-278.38190575 320.1574855 -278.38190575 320.1574855 -277.89479065 318.91537476 C-276.85570684 316.27318639 -275.80323253 313.63657673 -274.75 311 C-274.01916642 309.15209619 -273.28894865 307.30394874 -272.55932617 305.45556641 C-270.38745174 299.96452058 -268.19634179 294.48129725 -266 289 C-265.53608856 287.84050842 -265.53608856 287.84050842 -265.06280518 286.65759277 C-261.09726109 276.74880569 -257.07160247 266.86564892 -253 257 C-252.73507751 256.3571405 -252.47015503 255.71428101 -252.19720459 255.05194092 C-244.64664611 236.73521456 -236.77913264 218.59172031 -228.60302734 200.54443359 C-225.98971269 194.76616643 -223.40280019 188.97611036 -220.8125 183.1875 C-215.16547146 170.58426419 -209.49808911 157.99020906 -203.828125 145.39727783 C-199.50052033 135.78568053 -195.17687843 126.1724011 -190.8737793 116.54980469 C-189.32933959 113.10011324 -187.77808103 109.65354361 -186.2265625 106.20703125 C-184.17245919 101.63815705 -182.14633177 97.0584982 -180.14161682 92.46775818 C-178.82344386 89.45689472 -177.49162862 86.45216994 -176.1578064 83.44821167 C-175.52205771 82.00793446 -174.89213101 80.56507005 -174.26870728 79.11941528 C-169.21741073 67.41624247 -163.51935942 58.49584751 -152.375 51.8125 C-150.87228447 50.87648084 -149.36968613 49.94027354 -147.8671875 49.00390625 C-147.07666992 48.51809082 -146.28615234 48.03227539 -145.47167969 47.53173828 C-142.9239926 45.95289703 -140.40141507 44.33964145 -137.8828125 42.71484375 C-124.10572502 33.8340282 -110.12079772 25.32230176 -96 17 C-95.10458496 16.47164551 -94.20916992 15.94329102 -93.28662109 15.39892578 C-83.17927532 9.46117009 -72.92587712 3.81348302 -62.54168701 -1.62423706 C-60.80037953 -2.53611747 -59.06152781 -3.45268255 -57.32275391 -4.36938477 C-34.56462325 -16.15890378 -21.94924752 -11.69903926 0 0 Z M-55 119 C-56.41121903 119.79079179 -57.82267873 120.58115423 -59.234375 121.37109375 C-77.67248092 131.83744898 -94.75074563 144.41491877 -111 158 C-111.50692383 158.41523926 -112.01384766 158.83047852 -112.53613281 159.25830078 C-127.30076276 171.35446092 -141.44558988 184.7701468 -153 200 C-153.95022679 201.20048387 -154.90218939 202.39959493 -155.85546875 203.59765625 C-171.06131152 222.87822106 -183.93372608 243.6490618 -196 265 C-196.47695313 265.83821289 -196.95390625 266.67642578 -197.4453125 267.54003906 C-202.94121107 277.2088949 -208.17007807 286.98167013 -213.0234375 296.98925781 C-213.68565191 298.35275728 -214.35247313 299.71402715 -215.0234375 301.07324219 C-218.91841974 308.96936689 -222.52532358 316.91862948 -225.5625 325.1875 C-225.82627441 325.88222412 -226.09004883 326.57694824 -226.36181641 327.29272461 C-228.44368438 333.20289242 -228.08518542 336.7165329 -225.42578125 342.3125 C-224.73263552 343.54806352 -224.02735409 344.77686802 -223.3125 346 C-222.92239746 346.67933594 -222.53229492 347.35867188 -222.13037109 348.05859375 C-213.15460083 363.48688059 -203.31080965 378.43473006 -193 393 C-192.50177734 393.70543945 -192.00355469 394.41087891 -191.49023438 395.13769531 C-183.82701795 405.95495038 -175.84793805 416.4952004 -167.64599609 426.90869141 C-166.08869722 428.88730638 -164.53735583 430.87041168 -162.98828125 432.85546875 C-155.22276362 442.79645173 -147.2589614 452.55725912 -139.08374023 462.16430664 C-136.19106549 465.56944129 -133.36185533 469.01725775 -130.5625 472.5 C-126.18665755 477.88142204 -121.50691185 482.93998569 -116.77734375 488.0078125 C-114.61922281 490.32240262 -112.5082619 492.66895746 -110.4375 495.0625 C-106.22847033 499.9190727 -101.87251439 504.639918 -97.51123047 509.359375 C-96.04382911 510.95241816 -94.58590705 512.55369714 -93.12890625 514.15625 C-85.0305268 523.00416721 -76.59627614 531.51153008 -68.125 540 C-67.5371875 540.5904007 -66.949375 541.18080139 -66.34375 541.78909302 C-60.60189515 547.55087374 -54.88030825 553.27826512 -48.68603516 558.55908203 C-46.09285742 560.77526144 -43.62018417 563.11165658 -41.125 565.4375 C-37.30888251 568.9441367 -33.46465501 572.41103538 -29.5 575.75 C-28.7265625 576.40484375 -27.953125 577.0596875 -27.15625 577.734375 C-25.13860462 579.21130672 -25.13860462 579.21130672 -23.09971619 578.77113342 C-20.62335609 577.86167525 -19.19847478 576.70017145 -17.24829102 574.92749023 C-16.55075714 574.29422821 -15.85322327 573.66096619 -15.134552 573.0085144 C-11.70654476 569.78291863 -8.35064077 566.49333942 -5.02734375 563.16015625 C-4.30059952 562.43436874 -3.57385529 561.70858124 -2.8250885 560.96080017 C-1.30037704 559.43676444 0.2230915 557.91148431 1.74536133 556.38500977 C4.05633891 554.06867537 6.37260771 551.75772922 8.68945312 549.44726562 C10.1800082 547.95604966 11.670253 546.46452347 13.16015625 544.97265625 C13.84263931 544.29219742 14.52512238 543.61173859 15.22828674 542.91065979 C19.15581729 538.96420954 22.90259704 534.91328563 26.53074646 530.68943787 C28.26520488 528.69505116 30.0989565 526.83549028 32 525 C35.10246002 521.93882747 37.98106424 518.76857732 40.8203125 515.46484375 C43.81343952 512.08014276 46.90844441 508.79467696 50 505.5 C54.76485346 500.41315514 59.48709193 495.31342392 64 490 C64.83917969 489.01644531 65.67835938 488.03289062 66.54296875 487.01953125 C72.44750194 480.08183389 78.25407516 473.06978592 84 466 C85.03229994 464.73807495 86.0648696 463.4763705 87.09765625 462.21484375 C115.72487694 427.19735412 141.68091593 389.88252516 165.47851562 351.42529297 C166.54028337 349.73280248 167.63568177 348.06114964 168.75585938 346.40673828 C172.1281477 341.31291431 172.1281477 341.31291431 173.09765625 335.3984375 C171.78274285 331.32735331 170.24976479 327.49820806 168.4375 323.625 C168.05110352 322.78485352 167.66470703 321.94470703 167.26660156 321.07910156 C165.8601367 318.04511016 164.43240408 315.02183284 163 312 C162.5695639 311.08982117 162.5695639 311.08982117 162.13043213 310.16125488 C141.98794639 267.5929029 119.34605493 228.20086109 88.34570312 192.5690918 C86.99932629 190.99921446 85.69027749 189.40312027 84.3828125 187.80078125 C82.42615302 185.50090445 80.56440911 183.6013383 78.25 181.6875 C75.23913492 179.12685774 72.44259108 176.45894878 69.6875 173.625 C64.77208607 168.66785929 59.48659884 164.30439452 54 160 C53.40219727 159.52578613 52.80439453 159.05157227 52.18847656 158.56298828 C34.22052023 144.34403649 15.19691788 131.82507346 -5 121 C-5.90878906 120.50886719 -6.81757812 120.01773438 -7.75390625 119.51171875 C-26.27183637 109.64069834 -36.81450944 108.49631149 -55 119 Z " fill="#FCFCFC" transform="translate(546,159)"/>
<path d="M0 0 C0.8453833 0.43465576 1.6907666 0.86931152 2.56176758 1.31713867 C17.43147539 9.26609301 27.28400402 19.31281185 32.75 35.4375 C35.01656385 43.65379395 36.37126069 51.92700489 36.75 60.4375 C36.81445312 61.73171875 36.87890625 63.0259375 36.9453125 64.359375 C37.26232218 73.49395035 36.68697892 80.66540434 30.6875 87.9375 C26.24873634 91.37396219 20.90980201 90.83806367 15.61035156 90.16625977 C8.04127696 88.79867664 1.16896296 86.0722068 -5.9375 83.1875 C-7.19927539 82.68361097 -8.46140441 82.18060659 -9.72387695 81.6784668 C-14.67335631 79.70562431 -19.61391305 77.71194993 -24.53125 75.66015625 C-50.00393561 65.1146981 -75.59281766 58.46661562 -103.1875 58 C-104.79334961 57.93135742 -104.79334961 57.93135742 -106.43164062 57.86132812 C-123.12280697 57.63722023 -139.00466595 64.88415279 -154.22967529 71.04464722 C-173.97605558 79.01937685 -193.9795376 85.93131946 -214.25 92.4375 C-215.735 92.9325 -215.735 92.9325 -217.25 93.4375 C-224.95346797 94.0725156 -231.03895828 94.32704348 -237.25 89.4375 C-243.23839286 83.44910714 -244.54875411 76.92713624 -244.625 68.75 C-244.54390048 58.52574862 -243.0045367 48.48966515 -241.25 38.4375 C-241.04503906 37.19871094 -240.84007812 35.95992188 -240.62890625 34.68359375 C-239.27785287 27.97867667 -237.02111558 23.38688994 -231.25 19.4375 C-230.59 19.4375 -229.93 19.4375 -229.25 19.4375 C-229.39347318 21.58349243 -229.53991125 23.72928669 -229.6875 25.875 C-229.76871094 27.06996094 -229.84992188 28.26492188 -229.93359375 29.49609375 C-230.15329868 32.23291196 -230.42669615 34.91665279 -230.765625 37.63671875 C-231.41371201 43.35610183 -231.51040282 49.06097135 -231.5625 54.8125 C-231.59150391 55.87210937 -231.62050781 56.93171875 -231.65039062 58.0234375 C-231.71727846 66.42043301 -230.57408559 74.5743735 -224.9375 81.125 C-217.3960372 84.80803997 -209.68362538 80.95849518 -202.25 78.4375 C-197.83064309 76.72632608 -193.4800088 74.86797536 -189.125 73 C-177.60518057 68.12788282 -165.97517625 63.6033345 -154.25 59.25 C-153.48443787 58.96424103 -152.71887573 58.67848206 -151.93011475 58.38406372 C-149.74679208 57.57032258 -147.56140256 56.76245581 -145.375 55.95703125 C-144.72725616 55.71591614 -144.07951233 55.47480103 -143.41213989 55.22637939 C-140.04975463 53.99882158 -136.78257634 53.02640264 -133.25 52.4375 C-133.38277344 51.62410156 -133.51554687 50.81070313 -133.65234375 49.97265625 C-135.85983626 35.64812455 -136.362746 21.40299301 -136.48016357 6.93157959 C-136.49330545 5.48625613 -136.51118944 4.04096741 -136.53399658 2.59576416 C-136.56409371 0.53888938 -136.57367305 -1.51714717 -136.578125 -3.57421875 C-136.5874707 -4.77522217 -136.59681641 -5.97622559 -136.60644531 -7.21362305 C-136.20735358 -10.96317187 -135.19353926 -13.35054256 -133.25 -16.5625 C-102.98930935 -40.73903063 -29.57431868 -15.2281179 0 0 Z " fill="#FCFCFC" transform="translate(619.25,395.5625)"/>
<path d="M0 0 C0.87436271 27.50939383 -6.50474879 56.57163112 -19 81 C-19.31018066 81.60811523 -19.62036133 82.21623047 -19.93994141 82.84277344 C-30.00140681 102.17823895 -44.15737252 119.68837346 -58.86328125 135.671875 C-60.42329372 137.37163264 -61.95918359 139.09362034 -63.48046875 140.828125 C-64.69669922 142.21257812 -64.69669922 142.21257812 -65.9375 143.625 C-67.03384766 144.88183594 -67.03384766 144.88183594 -68.15234375 146.1640625 C-70 148 -70 148 -72 148 C-72.33 148.99 -72.66 149.98 -73 151 C-75.47964718 153.55066333 -78.24491364 155.75378221 -81 158 C-82.3303125 159.11375 -82.3303125 159.11375 -83.6875 160.25 C-93.03177303 165.18659707 -104.59822243 166.25115721 -115 165 C-117.75 163.6640625 -117.75 163.6640625 -120 162 C-120.58523438 161.58105469 -121.17046875 161.16210938 -121.7734375 160.73046875 C-124.83759147 156.40747446 -123.73513433 149.96906586 -123 145 C-119.36239653 137.09938053 -110.17002415 133.15281168 -103 129 C-100.32232981 127.35068878 -97.65879976 125.67953429 -95 124 C-96.30453125 123.96261719 -97.6090625 123.92523437 -98.953125 123.88671875 C-126.4193453 122.92700494 -126.4193453 122.92700494 -135.375 113.5 C-137 111 -137 111 -137 107 C-133.53252011 105.84417337 -130.30403046 105.67494211 -126.6875 105.5 C-125.90439453 105.45939453 -125.12128906 105.41878906 -124.31445312 105.37695312 C-118.00993335 105.07805175 -111.7038694 104.90455775 -105.39453125 104.75 C-104.54557785 104.72901245 -103.69662445 104.7080249 -102.82194519 104.68640137 C-98.48649139 104.58060079 -94.15100937 104.48193516 -89.81518555 104.39257812 C-88.18928845 104.3555527 -86.56339319 104.31844672 -84.9375 104.28125 C-83.80421013 104.26094727 -83.80421013 104.26094727 -82.64802551 104.24023438 C-79.51795492 104.16528258 -76.99067194 103.99689065 -74 103 C-88.40612706 94.90070276 -102.86635944 92.7890714 -119.125 92.9375 C-120.55972656 92.94426758 -120.55972656 92.94426758 -122.0234375 92.95117188 C-124.34902758 92.96279983 -126.6744776 92.97913898 -129 93 C-129 92.01 -129 91.02 -129 90 C-126.8671875 88.5625 -126.8671875 88.5625 -123.875 87 C-110.87734684 79.71947494 -92.88966888 67.66900665 -88 53 C-90.70918332 53.62148303 -93.41731127 54.24706561 -96.125 54.875 C-96.88554688 55.04902344 -97.64609375 55.22304688 -98.4296875 55.40234375 C-101.81767577 56.19092723 -105.08080948 57.02746588 -108.37890625 58.1484375 C-111.38722984 59.12580642 -113.02646414 59.01949801 -116 58 C-117.66479104 54.67041792 -117.18459065 50.96955686 -117.1875 47.3125 C-117.19974609 46.52166016 -117.21199219 45.73082031 -117.22460938 44.91601562 C-117.24014265 38.6457523 -116.56027622 33.34041434 -113 28 C-107.32820711 28.63752711 -103.02214303 31.70956523 -98.234375 34.5859375 C-89.77468752 39.53160095 -82.24903765 41.56852723 -72.4375 41.5 C-71.47658447 41.49427979 -70.51566895 41.48855957 -69.52563477 41.48266602 C-49.50825829 40.98760724 -31.85046918 31.13545826 -18 17 C-17.46375 16.4225 -16.9275 15.845 -16.375 15.25 C-15 14 -15 14 -13 14 C-12.7628125 13.44828125 -12.525625 12.8965625 -12.28125 12.328125 C-10.68754857 9.43225289 -8.71082727 7.20487963 -6.5 4.75 C-5.7059375 3.85796875 -4.911875 2.9659375 -4.09375 2.046875 C-2 0 -2 0 0 0 Z " fill="#FCFCFC" transform="translate(637,503)"/>
<path d="M0 0 C6.38165185 4.04171284 12.40968864 8.50744525 18.43408203 13.05395508 C32.06384951 23.3395986 45.86807864 33.38589015 59.7265625 43.36035156 C62.09194408 45.06631191 64.45271807 46.77849102 66.8125 48.4921875 C67.607771 49.0689624 68.40304199 49.6457373 69.22241211 50.23999023 C70.72415842 51.32936343 72.2250488 52.41991811 73.72485352 53.51196289 C78.16899287 56.73185001 82.68567237 59.77653849 87.32788086 62.70532227 C87.87968018 63.13256592 88.43147949 63.55980957 89 64 C89 64.66 89 65.32 89 66 C88.08565186 66.2019397 88.08565186 66.2019397 87.15283203 66.40795898 C35.7778209 77.83147771 -11.85526537 92.72412196 -56.48486328 121.39697266 C-61.08706328 124.33019389 -65.73212642 127.19426271 -70.375 130.0625 C-71.70422485 130.88500244 -71.70422485 130.88500244 -73.06030273 131.72412109 C-73.89376221 132.2392627 -74.72722168 132.7544043 -75.5859375 133.28515625 C-76.35905273 133.76355957 -77.13216797 134.24196289 -77.92871094 134.73486328 C-79.61603949 135.76547815 -81.32469866 136.76110578 -83.0390625 137.74609375 C-85.14048909 138.85379636 -85.14048909 138.85379636 -86 141 C-86.66 140.67 -87.32 140.34 -88 140 C-82.80809004 124.06204385 -71.29811034 111.96589002 -60 100 C-58.84586836 98.69479104 -57.69908094 97.38302037 -56.5625 96.0625 C-52.84690734 91.76691238 -48.96941409 87.62249264 -45.08618164 83.47875977 C-42.83910227 81.06622453 -40.8332703 78.74990544 -39 76 C-38.34 76 -37.68 76 -37 76 C-36.73646729 75.41428223 -36.47293457 74.82856445 -36.20141602 74.22509766 C-34.94897158 71.90549218 -33.59683426 70.29795369 -31.77734375 68.3984375 C-30.84631836 67.41617188 -30.84631836 67.41617188 -29.89648438 66.4140625 C-29.25001953 65.74117187 -28.60355469 65.06828125 -27.9375 64.375 C-26.65291865 63.03058186 -25.37026898 61.68431453 -24.08984375 60.3359375 C-23.52128662 59.74345215 -22.95272949 59.1509668 -22.36694336 58.54052734 C-20.90616037 57.02826021 -20.90616037 57.02826021 -20 55 C-29.80208001 63.41024387 -39.36730739 72.11347192 -48.29296875 81.453125 C-50 83 -50 83 -52 83 C-52.2475 83.5775 -52.495 84.155 -52.75 84.75 C-54.18299988 87.32939979 -55.78424676 89.06121592 -58 91 C-58.66 91 -59.32 91 -60 91 C-58.71057608 87.5012348 -57.19948239 84.57552096 -55.0859375 81.5078125 C-54.49772217 80.64937744 -53.90950684 79.79094238 -53.3034668 78.90649414 C-52.66707275 77.98860107 -52.03067871 77.07070801 -51.375 76.125 C-50.71346924 75.16263428 -50.05193848 74.20026855 -49.37036133 73.20874023 C-43.82940601 65.16071264 -38.23578858 57.14905908 -32.64550781 49.13525391 C-27.72509697 42.07169314 -22.90416304 34.95071914 -18.16650391 27.76367188 C-16.92375997 25.88473044 -15.67198163 24.01206279 -14.41796875 22.140625 C-9.51370042 14.81987994 -4.6858751 7.46326465 0 0 Z " fill="#FCFCFC" transform="translate(725,588)"/>
<path d="M0 0 C2.98425038 2.59539351 4.51923392 5.59813319 6.375 9.0625 C16.37382851 27.11255079 30.14991982 43.06628537 43.13989258 59.01318359 C46.84919264 63.57103814 50.53793758 68.14413513 54.1875 72.75 C54.64511719 73.32234375 55.10273438 73.8946875 55.57421875 74.484375 C57.71974076 77.20552486 59.61527149 79.81280364 61 83 C56.85301589 81.33919326 53.93305242 78.34002267 50.75 75.3125 C49.57747848 74.21414351 48.40430481 73.11648276 47.23046875 72.01953125 C46.6689209 71.49311035 46.10737305 70.96668945 45.52880859 70.42431641 C41.40792624 66.58509129 37.11280591 62.94599089 32.82421875 59.296875 C26.9880244 54.32476165 21.19774009 49.32482644 15.5625 44.125 C14.593125 43.23554687 13.62375 42.34609375 12.625 41.4296875 C11.02699962 39.95058596 9.44037909 38.45889596 7.875 36.9453125 C5.9332773 35.0622478 5.9332773 35.0622478 3 33 C-1.07278261 33.34137661 -4.50805717 34.98165084 -8.19921875 36.66015625 C-10.00132812 37.47444092 -10.00132812 37.47444092 -11.83984375 38.30517578 C-13.12245496 38.89082105 -14.40500595 39.47659822 -15.6875 40.0625 C-16.99716187 40.65660328 -18.30705898 41.25018823 -19.6171875 41.84326172 C-21.57655126 42.73034185 -23.53572995 43.6178056 -25.49398804 44.50732422 C-31.5164213 47.24191561 -37.56515223 49.91558784 -43.6315918 52.55102539 C-47.24546171 54.1405526 -50.75305095 55.73962393 -54 58 C-54 58.66 -54 59.32 -54 60 C-53.25355225 60.26514404 -52.50710449 60.53028809 -51.73803711 60.8034668 C-27.10165936 69.59508118 -2.19366505 78.6201401 20.9453125 90.921875 C23.3551399 92.18634717 25.78603336 93.40515641 28.21875 94.625 C38.67189203 99.90980329 48.8133941 105.54350766 58.75 111.75 C59.71292969 112.35142822 60.67585937 112.95285645 61.66796875 113.57250977 C72.26812254 120.29776337 82.26911008 126.97847604 90 137 C84.52799775 135.5379494 80.57362853 132.88175599 76 129.6875 C47.15812746 110.04583486 16.58855246 95.38214934 -15.97338867 83.13916016 C-17.88377107 82.42012779 -19.79072431 81.69185483 -21.69262695 80.95068359 C-29.48897257 77.97933641 -37.47158648 75.96980282 -45.5625 74 C-46.99111166 73.64788115 -48.4196594 73.2955029 -49.84814453 72.94287109 C-63.1715659 69.6664797 -76.52818867 66.60744735 -90 64 C-88.57370617 59.72111851 -85.387741 58.51187043 -81.6875 56.3125 C-80.20234687 55.40622184 -78.71797585 54.4986608 -77.234375 53.58984375 C-76.50412109 53.14495605 -75.77386719 52.70006836 -75.02148438 52.24169922 C-55.82562915 40.45062196 -37.60492097 26.84888569 -19.36328125 13.64453125 C-18.55737549 13.06147217 -17.75146973 12.47841309 -16.92114258 11.87768555 C-15.35105674 10.74108715 -13.78182982 9.60330094 -12.21362305 8.46411133 C-8.19621079 5.55318402 -4.15014951 2.7186106 0 0 Z " fill="#F8F8F8" transform="translate(300,589)"/>
<path d="M0 0 C0.33 0 0.66 0 1 0 C1 45.54 1 91.08 1 138 C-3.62 138 -8.24 138 -13 138 C-13.1621243 121.80574111 -13.28700237 105.61181743 -13.3626852 89.4169445 C-13.39876211 81.89714792 -13.44793616 74.37786518 -13.52807617 66.85839844 C-13.59790298 60.30347889 -13.64302055 53.7489315 -13.65861946 47.19365036 C-13.66773659 43.72325509 -13.68912064 40.25392433 -13.7401104 36.7838707 C-13.79660536 32.90763328 -13.79792564 29.03243197 -13.79467773 25.15576172 C-13.81984467 24.00849106 -13.8450116 22.8612204 -13.87094116 21.67918396 C-13.80147995 14.02743719 -13.80147995 14.02743719 -11.45851326 11.0239296 C-9.57533264 9.42776489 -9.57533264 9.42776489 -7.69862461 8.17811775 C-5.6973283 6.94419371 -5.6973283 6.94419371 -4 4 C-3.34 4 -2.68 4 -2 4 C-1.34 2.68 -0.68 1.36 0 0 Z " fill="#FBFBFB" transform="translate(592,708)"/>
<path d="M0 0 C2.31 1.98 4.62 3.96 7 6 C8.12032623 6.8611441 9.24065247 7.72228821 10.39492798 8.60952759 C13.86874437 12.18887865 13.70946365 15.94229308 13.746521 20.74264526 C13.72494934 21.89926666 13.70337769 23.05588806 13.68115234 24.24755859 C13.6820285 25.47738464 13.68290466 26.70721069 13.68380737 27.9743042 C13.68035123 31.33422138 13.65033697 34.69190696 13.60836363 38.05142927 C13.57076968 41.56674039 13.56732452 45.08208357 13.56021118 48.5975647 C13.54158748 55.24876865 13.49238501 61.89937849 13.43211424 68.55032122 C13.36497116 76.12459729 13.33204068 83.69890223 13.30194163 91.27340198 C13.23928289 106.84928773 13.13258394 122.42454379 13 138 C8.71 138 4.42 138 0 138 C0 92.46 0 46.92 0 0 Z " fill="#F9F8F8" transform="translate(444,708)"/>
<path d="M0 0 C2.9156164 3.54039134 5.50127818 7.1626772 8 11 C4.78956118 9.61811547 2.95063635 8.07578097 0.75 5.375 C0.22921875 4.74335937 -0.2915625 4.11171875 -0.828125 3.4609375 C-1.21484375 2.97882812 -1.6015625 2.49671875 -2 2 C-1.34 1.34 -0.68 0.68 0 0 Z " fill="#EEEEED" transform="translate(359,616)"/>
<path d="M0 0 C0.99 0.99 1.98 1.98 3 3 C1.37660195 4.70884005 -0.29319053 6.37446717 -2 8 C-2.66 8 -3.32 8 -4 8 C-2.87548273 5.0280615 -1.77706209 2.66559313 0 0 Z " fill="#CBCAC9" transform="translate(669,671)"/>
</svg>
